<svg width="30" height="35" viewBox="0 0 30 35" fill="none" xmlns="http://www.w3.org/2000/svg">
<g id="Padlock">
<path id="Vector" d="M20.9222 7.63449L19.1452 8.2694L18.3826 5.94715C16.9816 1.66496 12.5166 -0.608988 8.4138 0.836813C4.31104 2.28261 2.12681 6.97888 3.52775 11.2611L4.29033 13.5833L2.50638 14.2217C1.82612 14.4855 1.2737 15.0014 0.963957 15.662C0.65421 16.3226 0.610954 17.0772 0.843184 17.7689L5.78789 32.8791C5.89053 33.2215 6.06095 33.5398 6.28903 33.815C6.5171 34.0903 6.79818 34.3169 7.11556 34.4813C7.43293 34.6458 7.78013 34.7448 8.13652 34.7725C8.49292 34.8001 8.85123 34.7559 9.19018 34.6423L27.606 28.0551C28.2953 27.7917 28.8555 27.2713 29.1689 26.6033C29.4823 25.9353 29.5245 25.1718 29.2865 24.4734L24.3383 9.36324C24.233 9.02179 24.06 8.70505 23.8296 8.43192C23.5992 8.1588 23.3162 7.93488 22.9973 7.77354C22.6785 7.61219 22.3304 7.51673 21.9739 7.49284C21.6174 7.46895 21.2597 7.51713 20.9222 7.63449ZM6.88518 10.0499C6.50744 8.93648 6.57525 7.72006 7.0744 6.65551C7.57355 5.59096 8.46531 4.76087 9.56284 4.33917C10.1048 4.15375 10.6785 4.07939 11.2499 4.12054C11.8212 4.16168 12.3784 4.31749 12.8881 4.57867C13.3979 4.83984 13.8499 5.20103 14.217 5.64068C14.5842 6.08032 14.859 6.58943 15.0251 7.13761L15.7843 9.45986L7.64431 12.3722L6.88518 10.0499ZM17.237 23.4589L18.4999 27.3167C18.5231 27.3941 18.5156 27.4774 18.479 27.5493C18.4424 27.6213 18.3794 27.6764 18.3032 27.7032L16.5331 28.3346C16.4626 28.3542 16.3873 28.3457 16.323 28.3109C16.2587 28.2762 16.2103 28.2179 16.188 28.1483L14.9147 24.3078C14.2126 24.2695 13.539 24.0177 12.984 23.586C12.429 23.1544 12.0191 22.5634 11.8092 21.8924C11.5091 21.0052 11.5638 20.0363 11.962 19.1886C12.3601 18.3409 13.0707 17.6801 13.9451 17.3445C14.3768 17.197 14.8338 17.1379 15.2889 17.1708C15.7439 17.2036 16.1876 17.3278 16.5937 17.5358C16.9997 17.7438 17.3597 18.0314 17.6522 18.3815C17.9448 18.7316 18.1638 19.137 18.2963 19.5736C18.5183 20.2552 18.5367 20.9869 18.3491 21.6788C18.1616 22.3708 17.7763 22.993 17.2404 23.4693L17.237 23.4589Z" fill="#4CAF4F"/>
<path id="Vector_2" d="M19.0658 8.22803C19.0658 8.27634 15.7705 9.51511 11.6712 10.9885C7.5719 12.4619 4.22826 13.6455 4.211 13.611C4.19375 13.5765 7.50633 12.3273 11.6091 10.8505C15.7119 9.37363 19.0486 8.18318 19.0658 8.22803Z" fill="#263238"/>
<path id="Vector_3" d="M22.9788 8.86292C22.994 8.89286 23.0067 8.92402 23.0167 8.95608C23.0443 9.02509 23.0754 9.11481 23.1168 9.22523C23.2065 9.47712 23.3308 9.82563 23.486 10.2604L24.8111 14.1182C25.3632 15.7538 26.0222 17.693 26.7537 19.8462C27.0988 20.9262 27.506 22.0511 27.8855 23.2347C28.0887 23.8446 28.1765 24.487 28.1443 25.129C28.1151 25.4629 28.0201 25.7878 27.8648 26.0849C27.699 26.3809 27.4776 26.6422 27.2127 26.8543C26.6796 27.2435 26.0878 27.5452 25.4598 27.748L23.6827 28.3864L20.3184 29.5907L14.6214 31.6196L10.774 32.9722L9.73885 33.3173L9.46279 33.407C9.43328 33.4202 9.4018 33.4283 9.36963 33.4312C9.36963 33.4312 9.39723 33.4312 9.45589 33.3898L9.72504 33.2828L10.7602 32.8929L14.5869 31.485L20.2735 29.4147L23.631 28.2001L25.408 27.5583C26.0182 27.3636 26.5928 27.0711 27.1092 26.6922C27.3556 26.4953 27.5618 26.2528 27.7165 25.9779C27.8626 25.7031 27.9507 25.4013 27.9753 25.0911C28.007 24.4725 27.9228 23.8533 27.7268 23.2657C27.3542 22.0925 26.9608 20.9573 26.6054 19.8772C25.8877 17.7206 25.2251 15.7745 24.7006 14.1389C24.1761 12.5033 23.7345 11.1886 23.4308 10.2639C23.2859 9.81183 23.1755 9.45987 23.0858 9.20452L23.0029 8.92848C22.9925 8.90757 22.9844 8.88558 22.9788 8.86292Z" fill="#263238"/>
<path id="Vector_4" d="M13.2618 4.10459C13.2618 4.10459 13.079 4.01487 12.7408 3.87685C12.2588 3.69165 11.749 3.58899 11.2329 3.5732C10.4679 3.54696 9.70657 3.69074 9.00381 3.99417C8.14923 4.372 7.41851 4.98313 6.8955 5.75743C6.36899 6.52951 6.08649 7.44192 6.08461 8.37643C6.0918 9.14237 6.20798 9.90338 6.42967 10.6366C6.6091 11.2646 6.79543 11.7649 6.91965 12.1134C6.99292 12.2905 7.05291 12.4727 7.09909 12.6586C7.00107 12.4931 6.91902 12.3187 6.85408 12.1376C6.71261 11.7925 6.50903 11.3025 6.30889 10.6711C6.06323 9.93019 5.92948 9.15679 5.91208 8.37643C5.90288 7.40661 6.19198 6.4574 6.74022 5.65736C7.28147 4.85479 8.04206 4.22475 8.93135 3.84234C9.65603 3.53725 10.4411 3.40267 11.226 3.44898C11.7533 3.47585 12.2713 3.59863 12.7546 3.81129C12.8838 3.8709 13.0084 3.94011 13.1273 4.01832C13.1764 4.03989 13.2218 4.06899 13.2618 4.10459Z" fill="#263238"/>
<path id="Vector_5" d="M13.4206 17.6067C13.4757 17.5733 13.5334 17.5445 13.5932 17.5204C13.7659 17.4425 13.9448 17.379 14.128 17.3306C14.4188 17.2448 14.7188 17.1938 15.0217 17.1788C15.4337 17.1567 15.8458 17.2189 16.2329 17.3617C17.1162 17.6722 17.9271 18.5728 18.3274 19.7771C18.5193 20.4234 18.5193 21.1115 18.3274 21.7578C18.1145 22.4592 17.733 23.0978 17.2163 23.6176L17.237 23.5245C17.6959 24.7839 18.1963 26.1504 18.7139 27.5755L18.7449 27.6617L18.6586 27.6928L17.8685 27.955L16.1432 28.5313L16.0569 28.5589L16.0293 28.4726C15.5565 27.0441 15.039 25.7121 14.649 24.4044L14.7249 24.463C14.0504 24.407 13.4072 24.1538 12.8754 23.7349C12.3943 23.3644 11.9998 22.8934 11.7195 22.3547C11.4665 21.877 11.3406 21.3423 11.3537 20.8019C11.3697 20.2496 11.5076 19.7077 11.7575 19.215C12.0075 18.7222 12.3633 18.2909 12.7995 17.9517C12.9791 17.806 13.1806 17.6895 13.3965 17.6067C13.2016 17.7223 13.0127 17.8479 12.8306 17.9828C12.3514 18.3882 11.9843 18.9098 11.7643 19.4976C11.5756 19.9409 11.4873 20.4205 11.5057 20.9019C11.5242 21.3834 11.6491 21.8547 11.8713 22.2822C12.147 22.8004 12.532 23.2526 12.9997 23.6073C13.5069 24.0054 14.1202 24.2454 14.7629 24.2974H14.8216L14.8388 24.3492C15.2184 25.6328 15.7394 26.9751 16.2191 28.4105L16.1052 28.3553L17.8305 27.779L18.6172 27.5133L18.562 27.6307C18.0479 26.2056 17.551 24.8357 17.0955 23.5762V23.5245L17.1369 23.483C17.6386 22.9847 18.0126 22.3728 18.2273 21.6991C18.4103 21.0809 18.4103 20.4229 18.2273 19.8047C17.8512 18.6453 17.0748 17.7654 16.2329 17.4549C15.8602 17.3111 15.4623 17.2442 15.0631 17.2582C14.765 17.265 14.4687 17.3055 14.1798 17.3789C13.6656 17.5066 13.4241 17.6239 13.4206 17.6067Z" fill="#263238"/>
</g>
</svg>
