<svg width="30" height="50" viewBox="0 0 30 50" fill="none" xmlns="http://www.w3.org/2000/svg">
<g id="Plant">
<path id="Vector" d="M6.72094 37.1562C1.38977 33.433 0.182058 26.5214 0.392545 20.3069C0.427051 19.2717 0.313185 18.1744 0.806621 17.2669C1.30006 16.3594 2.45255 15.7348 3.38076 16.1696C4.15025 16.5319 4.48496 17.4291 4.91629 18.171C5.4918 19.1591 6.33518 19.9642 7.34895 20.4932C8.00802 20.8383 8.82582 21.0453 9.47798 20.6864C10.3751 20.193 10.4786 18.9611 10.4717 17.926C10.4717 16.0005 10.4602 14.0774 10.4372 12.1566C10.3752 11.1251 10.4801 10.0904 10.7478 9.09243C11.0687 8.11246 11.783 7.20495 12.7595 6.92891C13.736 6.65286 14.9541 7.22221 15.1749 8.22978C15.2129 8.65654 15.2233 9.08531 15.206 9.51341C15.2336 9.94473 15.4337 10.4175 15.8374 10.5486C16.2411 10.6797 16.6621 10.3795 16.9727 10.0758C18.0355 9.04067 18.7601 7.69149 19.4329 6.35956C20.1058 5.02763 20.7649 3.65774 21.731 2.52249C22.6972 1.38724 24.0326 0.486637 25.5267 0.400372C27.0208 0.314107 28.577 1.23197 28.9497 2.68122C29.3224 4.13047 28.477 5.61077 27.5695 6.78743C26.2 8.53402 24.5858 10.0739 22.7766 11.3595C22.4234 11.5523 22.1416 11.8535 21.9726 12.2187C21.7483 12.9088 22.4005 13.5989 23.0802 13.8163C23.8497 14.0716 24.6848 13.9923 25.4957 14.0889C26.3065 14.1855 27.1692 14.5375 27.4763 15.2966C27.8973 16.3525 27.0139 17.4567 26.1478 18.1813C24.4087 19.6306 22.434 20.7708 20.3094 21.5525C19.5503 21.8286 18.7532 22.0736 18.139 22.605C17.5248 23.1364 17.159 24.0646 17.5282 24.7927C17.8974 25.5207 18.8464 25.7519 19.6434 25.6036C20.4405 25.4552 21.1479 25.0273 21.907 24.7409C23.3252 24.2061 25.154 24.3027 26.0478 25.5276C26.3246 25.9496 26.4999 26.43 26.5597 26.9312C26.6196 27.4323 26.5625 27.9405 26.3928 28.4158C26.0475 29.3617 25.5159 30.2288 24.8297 30.9658C22.5697 33.666 19.6333 35.7177 16.3205 36.9112C13.0321 38.0499 9.98522 38.3604 6.7175 37.1631" fill="#4CAF4F"/>
<path id="Vector_2" d="M27.4314 1.25269C27.4314 1.25269 27.4003 1.28719 27.3313 1.3493L27.0242 1.6219C26.755 1.86344 26.3582 2.2154 25.8579 2.68123C24.4393 3.99838 23.122 5.42061 21.9173 6.93582C21.1478 7.89164 20.3507 8.97512 19.5019 10.1518C18.653 11.3284 17.7766 12.5983 16.907 13.9474C15.98 15.3702 15.131 16.8423 14.3639 18.3573C13.9637 19.1475 13.6117 19.9722 13.2494 20.8141L12.1797 23.3848C10.7697 26.6229 9.54168 29.9372 8.50136 33.3122C7.66339 36.0736 7.08577 38.9074 6.77606 41.7765C6.57538 43.7128 6.54305 45.6628 6.67945 47.6046C6.73465 48.2947 6.78642 48.8226 6.83473 49.1815C6.85543 49.354 6.86923 49.4921 6.88303 49.5921V49.7336C6.86818 49.6887 6.85778 49.6425 6.85198 49.5956C6.83472 49.4955 6.81402 49.3609 6.78641 49.1884C6.7243 48.8433 6.65875 48.2982 6.59663 47.608C6.43015 45.6626 6.4417 43.706 6.63114 41.7627C6.92163 38.8814 7.48664 36.0344 8.31848 33.2604C9.35006 29.8759 10.5747 26.5533 11.9865 23.3089L13.0838 20.7486C13.4461 19.9101 13.8015 19.0785 14.2052 18.2848C14.9776 16.7653 15.8335 15.2896 16.769 13.8646C17.6523 12.4844 18.5426 11.2353 19.3811 10.069C20.2196 8.90266 21.0305 7.81227 21.7965 6.85991C23.0135 5.3487 24.3485 3.93642 25.7889 2.63637C26.2996 2.17744 26.7067 1.83238 26.9828 1.60119L27.3037 1.3424C27.343 1.30815 27.3858 1.27808 27.4314 1.25269Z" fill="#263238"/>
<path id="Vector_3" d="M14.2501 18.278C14.2014 18.1358 14.1678 17.9889 14.15 17.8398C14.0948 17.5534 14.0327 17.1496 13.9602 16.6251C13.8118 15.59 13.66 14.1718 13.4978 12.6017C13.3357 11.0317 13.1528 9.61007 13.0009 8.58524C12.9216 8.07455 12.8526 7.66393 12.8043 7.37753C12.7666 7.23095 12.7469 7.08031 12.7456 6.92896C12.805 7.06719 12.8479 7.21197 12.8733 7.36028C12.9492 7.64323 13.0355 8.0504 13.1321 8.56454C13.3288 9.59972 13.522 11.0076 13.6842 12.581C13.8463 14.1545 13.9844 15.5347 14.0913 16.6079C14.1431 17.091 14.188 17.5016 14.2225 17.8294C14.2493 17.9773 14.2585 18.1279 14.2501 18.278Z" fill="#263238"/>
<path id="Vector_4" d="M27.5279 15.8005C27.36 15.837 27.189 15.8578 27.0172 15.8626C26.6722 15.8936 26.1822 15.935 25.5749 16.0041C24.3603 16.1352 22.6902 16.3767 20.8579 16.7218C19.0257 17.0668 17.3797 17.4568 16.1962 17.757C15.6061 17.9088 15.1299 18.0468 14.8159 18.14C14.6483 18.1995 14.4748 18.2412 14.2983 18.2642C14.4578 18.184 14.6241 18.1182 14.7952 18.0675C15.1196 17.9536 15.5889 17.7949 16.1755 17.6258C17.3521 17.2808 18.998 16.8702 20.8372 16.5182C22.3952 16.2203 23.9672 16.0015 25.5473 15.8626C26.158 15.8108 26.6515 15.7901 26.9965 15.7832C27.1738 15.7712 27.3518 15.7769 27.5279 15.8005Z" fill="#263238"/>
<path id="Vector_5" d="M8.48757 33.0189C8.45078 32.9689 8.42063 32.9144 8.39786 32.8567L8.17012 32.377C7.97344 31.9595 7.70774 31.3419 7.39028 30.5862C6.74847 29.0679 5.93068 26.9424 5.06113 24.5821C4.19158 22.2219 3.39104 20.0964 2.78373 18.5609C2.48698 17.8155 2.24199 17.2048 2.05911 16.7493L1.86587 16.2559C1.83909 16.199 1.82051 16.1385 1.81067 16.0764C1.84746 16.1264 1.87761 16.1809 1.90038 16.2386L2.12812 16.7182C2.32135 17.1358 2.5905 17.7534 2.90796 18.5091C3.54977 20.0274 4.36756 22.1529 5.23711 24.5131C6.10666 26.8733 6.9072 28.9989 7.51451 30.5344C7.81126 31.2798 8.05625 31.8905 8.23568 32.346C8.31505 32.5427 8.38061 32.6911 8.43237 32.8394C8.45915 32.8963 8.47773 32.9567 8.48757 33.0189Z" fill="#263238"/>
<path id="Vector_6" d="M26.1132 27.3358C26.058 27.3675 25.9988 27.3919 25.9373 27.4083L25.4266 27.5808L23.5391 28.1916C21.9449 28.7092 19.7434 29.4476 17.328 30.2619C14.9126 31.0763 12.7008 31.8009 11.0962 32.284C10.2957 32.529 9.64353 32.7153 9.1915 32.8395L8.67046 32.9741C8.60987 32.9933 8.54741 33.0061 8.48413 33.0121C8.53939 32.9803 8.59854 32.956 8.6601 32.9396L9.1708 32.7671L11.0583 32.1563C12.6525 31.6387 14.8539 30.9003 17.2694 30.0859C19.6848 29.2716 21.8932 28.547 23.4977 28.0639C24.3017 27.8189 24.9504 27.6326 25.4059 27.5083L25.9269 27.3738C25.9875 27.3545 26.05 27.3418 26.1132 27.3358Z" fill="#263238"/>
</g>
</svg>
