<?xml version="1.0" standalone="no"?>
<svg viewBox="0 0 200 200" xmlns="http://www.w3.org/2000/svg">
  <path fill="#FF0066" d="M21,-26.8C30.8,-30.7,44.8,-32.3,44.5,-27.5C44.2,-22.7,29.5,-11.3,24.9,-2.6C20.4,6,25.9,12.1,28.7,21.2C31.5,30.4,31.6,42.6,26.3,49.7C21.1,56.9,10.6,58.9,4.6,51C-1.4,43.1,-2.9,25.3,-12.1,20.4C-21.3,15.6,-38.4,23.8,-50.1,22.6C-61.7,21.3,-68.1,10.7,-66.1,1.2C-64,-8.3,-53.7,-16.7,-47.4,-27.3C-41.1,-37.9,-38.9,-50.7,-31.7,-48.2C-24.4,-45.8,-12.2,-28.1,-3.3,-22.4C5.6,-16.7,11.2,-22.9,21,-26.8Z" transform="translate(100 100)" />
</svg>
