<svg width="136" height="188" viewBox="0 0 136 188" fill="none" xmlns="http://www.w3.org/2000/svg">
<g id="freepik  device 1  inject 10">
<g id="freepik  Monitor  inject 10">
<path id="Vector" d="M80.9522 185.643L102.642 173.111C104.877 171.817 105.995 170.127 105.995 168.437C105.995 166.747 105.995 165.417 105.995 165.417L85.5787 153.84C84.9511 153.429 84.4288 152.876 84.054 152.226C83.6793 151.577 83.4625 150.848 83.4211 150.099V123.366L45.5533 145.254V171.987C45.5895 172.732 45.8005 173.458 46.1692 174.107C46.5378 174.756 47.0538 175.309 47.6755 175.721L64.7242 185.622C69.2304 188.225 76.4814 188.225 80.9522 185.643Z" fill="#37474F"/>
<path id="Vector_2" d="M54.6436 176.718V179.724L47.7039 175.721C47.0762 175.31 46.554 174.757 46.1792 174.107C45.8044 173.458 45.5876 172.729 45.5463 171.98V145.254L52.7619 141.089C52.9175 142.921 53.0731 144.816 53.2288 146.662L48.1637 149.59V170.474C48.1978 171.22 48.4077 171.948 48.7765 172.598C49.1453 173.248 49.6625 173.802 50.2859 174.215L54.6436 176.718Z" fill="#263238"/>
<path id="Vector_3" d="M48.1636 170.481C48.201 171.227 48.4124 171.953 48.7809 172.603C49.1494 173.253 49.6648 173.807 50.2859 174.222L64.7171 182.631C69.195 185.212 76.446 185.212 80.9169 182.631L102.613 170.099C107.091 167.517 107.091 163.331 102.613 160.749L88.1679 152.334C87.5386 151.924 87.0152 151.372 86.6402 150.722C86.2652 150.072 86.0494 149.342 86.0102 148.593V127.716L48.1636 149.59V170.481Z" fill="#455A64"/>
<path id="Vector_4" opacity="0.15" d="M92.6033 154.873L88.2103 152.334C87.5811 151.924 87.0576 151.372 86.6826 150.722C86.3076 150.072 86.0918 149.342 86.0527 148.593V127.716L48.1636 149.59V170.481C48.201 171.227 48.4124 171.953 48.7809 172.603C49.1494 173.252 49.6648 173.807 50.2859 174.222L54.6082 176.711L92.6033 154.873Z" fill="#103E13"/>
<path id="Vector_5" d="M3.03062 186.966C3.8497 187.361 4.75042 187.558 5.65987 187.541C6.56931 187.524 7.46193 187.293 8.26547 186.867C26.8917 176.117 114.285 125.672 132.912 114.929C133.696 114.416 134.348 113.725 134.816 112.913C135.284 112.101 135.555 111.19 135.607 110.255V5.90584C135.644 4.98165 135.428 4.06483 134.981 3.2549C134.534 2.44496 133.874 1.77285 133.072 1.31152C132.27 0.850183 131.357 0.617247 130.432 0.637993C129.507 0.658739 128.606 0.932376 127.825 1.4292L3.20039 73.3666C2.42155 73.8834 1.77464 74.5754 1.31151 75.3872C0.848379 76.199 0.581906 77.108 0.533447 78.0412V182.39C0.563635 183.295 0.805204 184.18 1.23882 184.974C1.67244 185.769 2.28608 186.451 3.03062 186.966Z" fill="#37474F"/>
<path id="Vector_6" d="M8.26553 186.867L132.912 114.922C133.697 114.41 134.35 113.719 134.819 112.907C135.287 112.095 135.557 111.184 135.607 110.248V5.90585C135.607 4.18026 134.397 3.48719 132.912 4.34999L8.26553 76.2874C7.48026 76.7998 6.82695 77.4902 6.35864 78.3024C5.89034 79.1147 5.62024 80.0259 5.57028 80.962V185.311C5.56321 187.029 6.77289 187.722 8.26553 186.867Z" fill="#455A64"/>
<path id="Vector_7" d="M9.13568 172.723V82.1997C9.16703 81.6248 9.33319 81.0654 9.62075 80.5666C9.90831 80.0678 10.3092 79.6437 10.791 79.3284L130.379 10.3047C131.292 9.7743 132.035 10.2057 132.035 11.2594V101.782C132.004 102.359 131.837 102.92 131.548 103.42C131.259 103.921 130.856 104.345 130.372 104.661L10.791 173.684C9.87847 174.208 9.13568 173.783 9.13568 172.723Z" fill="#4CAF4F"/>
<path id="Vector_8" opacity="0.75" d="M9.13568 172.723V82.1997C9.16703 81.6248 9.33319 81.0654 9.62075 80.5666C9.90831 80.0678 10.3092 79.6437 10.791 79.3284L130.379 10.3047C131.292 9.7743 132.035 10.2057 132.035 11.2594V101.782C132.004 102.359 131.837 102.92 131.548 103.42C131.259 103.921 130.856 104.345 130.372 104.661L10.791 173.684C9.87847 174.208 9.13568 173.783 9.13568 172.723Z" fill="white"/>
<path id="Vector_9" d="M1.29755 75.3822L6.36263 78.303C5.87961 79.1119 5.60494 80.028 5.56325 80.9692V185.311C5.56325 186.881 6.63144 187.758 8.26557 186.867C7.46363 187.298 6.57048 187.532 5.66011 187.549C4.74974 187.566 3.84838 187.366 3.03071 186.966C2.28996 186.524 1.67073 185.904 1.22868 185.164C0.786621 184.423 0.535597 183.584 0.498169 182.722V78.0555C0.533881 77.1111 0.808938 76.1912 1.29755 75.3822Z" fill="#263238"/>
<path id="Vector_10" d="M65.0779 146.881L76.0923 140.516C76.6441 140.205 77.0827 140.424 77.0827 141.018C77.058 141.35 76.9554 141.672 76.7834 141.957C76.6113 142.242 76.3746 142.482 76.0923 142.659L65.0779 149.024C64.5332 149.342 64.0875 149.116 64.0875 148.529C64.1112 148.196 64.2132 147.873 64.3853 147.586C64.5574 147.3 64.7947 147.058 65.0779 146.881Z" fill="#4CAF4F"/>
</g>
</g>
</svg>
