<svg width="88" height="180" viewBox="0 0 88 180" fill="none" xmlns="http://www.w3.org/2000/svg">
<g id="freepik  Character  inject 10">
<g id="freepik  character  inject 10">
<g id="freepik  Bottom  inject 10">
<path id="Vector" d="M79.4207 160.826C79.923 161.815 80.1479 162.922 80.0715 164.029C80.022 164.998 79.4419 166.257 79.7037 168.442C79.9654 170.628 80.4677 171.321 80.7011 172.863C80.8382 173.57 80.8331 174.298 80.6862 175.003C80.5392 175.708 80.2533 176.378 79.8452 176.971C78.9397 178.442 76.9448 179.609 72.9974 179.468C69.8141 179.355 68.5266 177.721 68.4558 175.847L79.4207 160.826Z" fill="#263238"/>
<path id="Vector_2" d="M78.5152 156.314C78.6131 156.72 78.677 157.134 78.7062 157.551C78.8265 158.294 79.0458 158.966 79.2226 159.723C79.2721 159.914 79.3146 160.104 79.357 160.295C79.6612 161.759 79.357 163.273 79.357 164.765C79.4792 166.528 79.7898 168.273 80.2837 169.97C80.9911 173.068 81.1114 175.14 78.402 177.283C76.9872 178.414 75.4096 178.449 73.5987 178.499C72.2059 178.547 70.8264 178.215 69.6089 177.537C68.4487 176.681 68.4629 175.96 68.4558 175.684C68.3497 172.396 69.5381 168.57 69.7786 165.288C69.8681 164.405 69.8871 163.516 69.8352 162.629C69.7221 161.54 69.3471 160.458 69.2269 159.362C69.1424 158.953 69.1946 158.528 69.3754 158.153C69.5583 157.945 69.7837 157.778 70.0363 157.665C70.2889 157.552 70.5628 157.494 70.8398 157.495C72.2546 157.304 73.726 157.162 75.1762 157.056C75.5173 156.992 75.8702 157.063 76.1595 157.254C76.4425 157.509 76.4496 157.962 76.5274 158.308C76.6052 158.655 76.874 159.1 77.2348 159.015C77.3541 158.977 77.4594 158.904 77.5374 158.806C77.6154 158.708 77.6627 158.589 77.6734 158.464C77.7087 158.223 77.8149 156.342 77.8078 156.066C77.8361 156.08 78.3454 156.003 78.5152 156.314Z" fill="#37474F"/>
<path id="Vector_3" d="M30.6091 167.226C30.3761 167.807 30.3761 168.455 30.6091 169.036C30.8426 169.574 33.5378 171.243 37.2659 171.158C40.0246 171.07 42.7103 170.25 45.0474 168.782C46.4976 167.898 47.9832 167.785 49.8296 167.749C51.6759 167.714 53.8406 167.042 54.4702 166.215C54.707 165.404 54.707 164.543 54.4702 163.732L30.6091 167.226Z" fill="#263238"/>
<path id="Vector_4" d="M44.1066 156.215C43.9637 156.481 43.8362 156.755 43.7246 157.035C43.2676 158.046 42.5618 158.924 41.6731 159.588C40.3868 160.478 39.006 161.223 37.556 161.809C36.6363 162.219 35.6743 162.332 34.7263 162.657C33.6756 162.994 32.6631 163.439 31.7057 163.987C30.2059 164.906 29.923 167.375 31.543 168.421C32.9578 169.319 36.6858 170.387 40.6898 169.425C42.8757 168.902 45.3587 166.689 48.2025 166.597C50.0064 166.533 53.4374 166.165 54.6541 164.843C55.0998 162.87 54.6117 162.311 54.2085 160.599C53.9928 159.652 53.879 158.685 53.8689 157.714C53.8689 157.205 54.2085 155.741 53.1615 155.592L53.0554 156.689C53.0554 156.689 52.8502 157.056 51.7325 157.254C51.3717 157.318 51.0888 157.792 50.8978 158.223C50.7068 158.655 50.5865 158.987 50.1904 158.98C50.0668 158.963 49.95 158.913 49.8519 158.836C49.7537 158.759 49.6777 158.657 49.6315 158.541C49.5463 158.311 49.4777 158.075 49.4264 157.834C49.2833 157.449 49.0579 157.099 48.7659 156.81C48.4739 156.52 48.1223 156.298 47.7356 156.158C47.0941 155.942 46.4293 155.801 45.7549 155.741C45.2455 155.663 44.8211 155.444 44.3401 155.882C44.2481 155.982 44.1696 156.094 44.1066 156.215Z" fill="#37474F"/>
<path id="Vector_5" d="M73.1317 72.0993C73.8391 82.8984 74.2141 89.1855 76.1453 118.655C77.5665 123.698 78.4695 128.874 78.8405 134.1C79.2225 140.621 80.1493 160.267 80.1493 160.267C80.1493 160.267 74.8932 164.581 68.8307 162.587C68.8307 162.587 63.327 133.704 61.4028 124.694C59.5635 116.045 58.1487 106.59 58.1487 106.59L56.7834 118.655C56.7834 118.655 57.0239 124.023 56.8542 132.035C56.7693 136.321 54.7319 159.517 54.7319 159.517C54.7319 159.517 47.3536 162.87 42.3734 158.563C42.3734 158.563 42.0126 120.946 41.9348 117.071C41.8499 112.644 42.6422 68.1248 42.6422 68.1248L73.1317 72.0993Z" fill="#455A64"/>
<path id="Vector_6" d="M58.1205 106.597L54.35 86.8446C54.35 86.8446 48.5209 86.3354 45.3021 83.0823C45.3021 83.0823 45.8751 86.2718 53.2039 88.1813L56.8471 106.371L56.7835 118.655L58.1205 106.597Z" fill="#37474F"/>
<path id="Vector_7" d="M79.9795 156.724C77.7388 158.664 74.8571 159.702 71.8938 159.638C71.8938 159.638 76.9164 158.888 79.93 155.578L79.9795 156.724Z" fill="#37474F"/>
<path id="Vector_8" d="M54.9654 156.781C54.9654 156.781 49.8225 158.577 45.4861 157.205C45.4861 157.205 48.8322 159.454 54.8876 157.608L54.9654 156.781Z" fill="#37474F"/>
</g>
<g id="freepik  Top  inject 10">
<path id="Vector_9" d="M0.720943 31.9156C0.684385 31.7466 0.612026 31.5875 0.508728 31.4488C0.328873 31.1226 0.238091 30.7548 0.245542 30.3823C0.252992 30.0099 0.358411 29.646 0.551171 29.3272C0.676229 29.1715 0.780834 29.0003 0.862434 28.818C1.00392 28.4291 0.827064 27.9906 0.862434 27.5733C0.989769 25.7134 4.35704 26.5267 5.42524 26.8661C5.7365 26.9722 7.54748 27.439 8.25489 27.6865C8.1916 26.6658 8.29192 25.6416 8.55202 24.6526C9.03306 22.7219 10.6247 22.9199 10.7167 24.1009C10.8043 25.1702 11.0034 26.2273 11.3109 27.2551C11.509 28.0118 12.0183 28.7614 12.3084 29.8788C12.7258 31.2933 12.6196 32.0853 14.0345 33.4149C16.1567 35.4163 27.0509 42.7996 27.0509 42.7996C29.7673 41.0528 40.2795 34.5889 44.2198 32.4531C48.0328 30.381 49.9782 32.05 49.9782 32.05L46.6533 44.2918C46.6533 44.2918 33.5449 51.0527 28.8194 53.1178C25.5229 54.5322 24.0656 53.7401 20.4295 50.5011C17.5432 47.7713 13.7373 43.825 9.62728 40.19C7.98608 38.7331 6.79763 37.9905 5.63748 37.934C5.19888 37.934 4.76028 37.8845 4.32876 37.842C3.35253 37.7289 2.20651 37.4884 1.73254 36.5195C1.56983 36.1942 1.49202 35.8123 1.35761 35.487C1.15246 34.9637 0.827051 34.4969 0.650197 33.9736C0.504471 33.6228 0.455622 33.2394 0.508728 32.8633C0.508728 32.5592 0.763388 32.2551 0.720943 31.9156Z" fill="#E8F5E9"/>
<path id="Vector_10" d="M50.6713 31.1095C47.3182 31.1095 46.0166 31.1095 41.7579 33.5282C37.4993 35.9468 29.1943 41.4418 29.1943 41.4418C29.1943 41.4418 32.9153 43.5139 33.6581 50.8689L47.0989 44.5606L50.6713 31.1095Z" fill="#455A64"/>
<path id="Vector_11" d="M6.96028 28.811C8.07092 29.0798 8.41754 29.7799 8.49535 31.3428C8.5378 32.2693 8.92688 33.9595 9.98092 34.5748C9.49295 34.5572 9.0218 34.392 8.62976 34.101C8.12043 33.6413 7.98603 33.5988 7.73844 33.8959C7.55547 34.0953 7.32748 34.248 7.07347 34.3414C7.25553 34.5236 7.37385 34.7597 7.41081 35.0146C7.44778 35.2695 7.4014 35.5294 7.2786 35.7558C6.84708 36.5903 4.67533 36.753 2.83606 35.9538C2.83606 35.9538 5.78597 36.6611 6.37312 35.6993C6.96027 34.7375 5.37567 33.6908 4.25088 33.4574C4.25088 33.4574 7.08054 33.9312 7.4484 32.9906C7.81625 32.0501 6.61365 31.4348 4.94415 31.1307C4.94415 31.1307 7.27861 31.3924 7.61817 30.5791C7.7453 30.2551 7.74849 29.8956 7.62711 29.5694C7.50573 29.2432 7.26831 28.9732 6.96028 28.811Z" fill="#C8E6C9"/>
<path id="Vector_12" d="M27.0225 42.8209C28.4943 43.8035 29.6338 45.209 30.2907 46.8519C30.2907 46.8519 30.5242 43.7473 27.9704 42.2197L27.0225 42.8209Z" fill="#C8E6C9"/>
<path id="Vector_13" d="M42.239 43.2027C42.6564 34.8789 46.0095 31.5196 50.6714 31.1094L61.1482 30.4022C63.9778 31.0599 71.3349 32.4743 71.3349 32.4743C74.3839 33.3866 76.5273 41.3357 75.8128 45.8618C75.0984 50.388 73.6057 53.8392 73.1883 61.4558C73.3086 68.6694 73.4147 70.0979 73.4147 72.9268C66.8994 77.0639 49.398 77.9267 42.5149 73.7754C42.5149 73.7754 42.3946 66.8023 42.2531 62.361C42.0126 54.7444 42.0975 46.0669 42.239 43.2027Z" fill="#4CAF4F"/>
<path id="Vector_14" d="M44.9909 7.89172C44.5696 8.13216 44.2211 8.4818 43.982 8.90376C43.743 9.32571 43.6223 9.80434 43.6326 10.2892C43.616 11.0153 43.8235 11.7289 44.2269 12.333C44.8369 13.1035 45.6811 13.6545 46.6321 13.903C47.0419 14.0011 47.4421 14.136 47.8276 14.3061C48.3079 14.6484 48.7576 15.0318 49.1717 15.4518C49.8154 15.9468 50.4521 16.456 51.11 16.9369C52.4145 17.9109 53.7776 18.8036 55.1918 19.6102C56.5507 20.3879 57.9701 21.0549 59.4362 21.6045C60.9855 22.1774 62.2659 21.6752 63.9212 21.8238L63.6807 26.3075C63.6807 26.3075 64.2325 25.2749 64.8621 24.0444C65.4068 22.9836 67.6918 17.5805 67.6918 17.5805C68.5831 15.4589 69.715 13.2382 69.5805 10.8691C69.4674 8.95254 69.0854 7.26938 67.6281 6.45608C67.5078 4.24959 67.0056 3.17463 65.4563 1.99359C64.3132 1.22085 63.0003 0.735616 61.6292 0.57917C60.0806 0.400373 58.5139 0.455202 56.9815 0.741825C54.6895 1.10957 52.3975 1.69656 50.0772 1.57634C48.8372 1.44421 47.5839 1.52311 46.3703 1.80971C45.5994 2.05966 44.9301 2.55215 44.4622 3.21366C43.9943 3.87517 43.7529 4.67022 43.7741 5.48013C43.7246 6.32171 44.3966 7.70784 44.9909 7.89172Z" fill="#37474F"/>
<path id="Vector_15" d="M59.507 8.46457C59.507 9.87899 60.8086 11.8804 62.7894 13.606C62.5555 14.9149 62.5916 16.2578 62.8955 17.5522C63.0171 17.9545 63.2035 18.3343 63.4473 18.6767C63.5376 18.82 63.6588 18.9413 63.802 19.0318C63.9452 19.1224 64.1067 19.1798 64.2749 19.2C64.7348 19.2 64.9187 18.9596 65.0602 18.5989C65.2691 18.1419 65.5053 17.6979 65.7676 17.2693C65.8844 17.0864 66.0195 16.9157 66.1708 16.7601C66.8782 16.1166 68.9227 15.3457 69.8777 17.5239C70.8327 19.7021 69.0429 22.7856 67.3876 23.2453C64.5579 24.0444 63.9142 22.0996 63.9142 22.0996L63.9637 31.5338C63.1643 33.9241 58.7359 36.2508 55.1705 35.777C51.6052 35.3032 52.737 33.1533 54.1872 31.6964L54.0033 28.422C52.7341 28.5478 51.4537 28.5002 50.1974 28.2806C48.7189 27.9977 47.5022 26.6116 46.8867 24.3556C45.9063 20.0574 45.7622 15.6107 46.4623 11.258C46.9999 8.59894 47.6578 7.45326 47.9761 7.14209C47.9761 7.722 49.0868 9.4971 51.966 9.89314C55.0078 10.3316 57.314 9.3698 59.507 8.46457Z" fill="#E8F5E9"/>
<path id="Vector_16" d="M53.9891 28.4362C56.6207 28.1957 58.7571 27.8351 60.2427 27.0218C61.3321 26.4489 62.273 24.6597 62.5559 24.0232C62.5559 24.0232 62.4852 26.4701 61.0208 27.828C58.9552 29.7445 54.067 29.7445 54.067 29.7445L53.9891 28.4362Z" fill="#C8E6C9"/>
<path id="Vector_17" d="M55.3686 16.4277C55.3701 16.6147 55.4265 16.7971 55.5308 16.9524C55.6351 17.1076 55.7827 17.2288 55.9553 17.3009C56.1279 17.373 56.3178 17.3928 56.5016 17.358C56.6854 17.3231 56.8549 17.2351 56.989 17.1048C57.1232 16.9745 57.2162 16.8077 57.2563 16.6251C57.2965 16.4425 57.2822 16.252 57.2151 16.0775C57.148 15.903 57.0311 15.7519 56.8789 15.6432C56.7267 15.5345 56.5459 15.4729 56.359 15.4659C56.2308 15.4641 56.1035 15.4874 55.9843 15.5348C55.8651 15.5821 55.7565 15.6524 55.6645 15.7417C55.5725 15.8311 55.4991 15.9376 55.4483 16.0553C55.3975 16.173 55.3704 16.2996 55.3686 16.4277Z" fill="#263238"/>
<path id="Vector_18" d="M55.7153 13.3089L58.0285 14.2636C58.149 13.948 58.1426 13.5979 58.0108 13.2868C57.8789 12.9757 57.6318 12.7277 57.3211 12.5946C57.1691 12.5325 57.0061 12.5017 56.8419 12.5042C56.6777 12.5066 56.5157 12.5423 56.3657 12.6091C56.2156 12.6758 56.0806 12.7722 55.9689 12.8925C55.8571 13.0128 55.7708 13.1544 55.7153 13.3089Z" fill="#263238"/>
<path id="Vector_19" d="M56.6207 21.5762L53.0837 22.9906C53.1675 23.2277 53.2986 23.4454 53.469 23.6304C53.6394 23.8155 53.8455 23.9641 54.075 24.0672C54.3044 24.1703 54.5524 24.2258 54.804 24.2304C55.0555 24.235 55.3053 24.1885 55.5384 24.0938C56.0076 23.8933 56.3816 23.52 56.5831 23.0513C56.7846 22.5827 56.798 22.0545 56.6207 21.5762Z" fill="#388E3B"/>
<path id="Vector_20" d="M54.5622 24.0585C54.5589 24.1174 54.5589 24.1764 54.5622 24.2353C54.8941 24.2889 55.2344 24.2497 55.5455 24.1222C55.9019 23.9697 56.2051 23.7149 56.4166 23.3901C56.6282 23.0653 56.7386 22.6851 56.7339 22.2976C56.6085 22.2695 56.4805 22.2552 56.3519 22.2551C55.876 22.2589 55.4208 22.4505 55.0855 22.7883C54.7503 23.1261 54.5622 23.5827 54.5622 24.0585Z" fill="#C8E6C9"/>
<path id="Vector_21" d="M47.0565 14.2071L49.3414 13.3231C49.2888 13.1731 49.2063 13.0352 49.0991 12.9178C48.9919 12.8004 48.8621 12.7058 48.7174 12.6398C48.5727 12.5738 48.4162 12.5376 48.2572 12.5335C48.0983 12.5294 47.9401 12.5574 47.7922 12.6159C47.4844 12.7305 47.2344 12.962 47.0966 13.26C46.9588 13.5581 46.9444 13.8985 47.0565 14.2071Z" fill="#263238"/>
<path id="Vector_22" d="M47.6437 16.2226C47.636 16.351 47.6541 16.4797 47.6967 16.6011C47.7393 16.7224 47.8057 16.8341 47.892 16.9296C47.9783 17.025 48.0827 17.1024 48.1991 17.157C48.3156 17.2117 48.4418 17.2427 48.5704 17.2481C48.7689 17.2621 48.967 17.2164 49.1393 17.117C49.3116 17.0176 49.4503 16.8689 49.5374 16.6901C49.6245 16.5113 49.6562 16.3105 49.6283 16.1135C49.6004 15.9166 49.5142 15.7325 49.3808 15.5849C49.2474 15.4373 49.0729 15.333 48.8798 15.2853C48.6866 15.2376 48.4836 15.2488 48.2968 15.3173C48.1101 15.3859 47.9481 15.5087 47.8317 15.6701C47.7153 15.8314 47.6498 16.0238 47.6437 16.2226Z" fill="#263238"/>
<path id="Vector_23" d="M52.7229 21.1095L49.2 20.4447L52.5248 14.8153L52.7229 21.1095Z" fill="#C8E6C9"/>
<path id="Vector_24" d="M71.9433 32.644C76.3505 33.4078 79.0175 34.8222 80.1493 38.3017C81.7552 43.2522 86.2472 57.2762 87.1739 62.262C87.7399 65.3242 88.6241 67.262 86.0279 69.2775C79.8411 73.7528 73.3817 77.8389 66.6872 81.5122C60.8016 84.5957 51.9164 85.2039 51.9164 85.2039L58.361 81.3071L59.507 79.1219L76.7325 63.8674L70.2243 44.6454C70.2243 44.6454 68.5831 34.7657 71.9433 32.644Z" fill="#E8F5E9"/>
<path id="Vector_25" d="M76.7325 63.8673C78.1323 63.1463 79.6852 62.7728 81.2599 62.7782C81.2599 62.7782 79.7319 61.4628 76.3575 62.7782L76.7325 63.8673Z" fill="#C8E6C9"/>
<path id="Vector_26" d="M71.335 32.4744C73.3511 32.8492 75.5794 33.0684 77.6309 34.3697C79.6824 35.671 80.0574 37.248 81.6349 42.1066C83.2124 46.9651 85.0729 54.1291 85.0729 54.1291C85.0729 54.1291 81.2104 57.3964 74.5608 57.4884C74.5608 57.4884 71.2854 48.4007 70.479 46.3781C69.6725 44.3555 67.6423 37.835 71.335 32.4744Z" fill="#455A64"/>
<path id="Vector_27" d="M64.2325 76.1304V76.7386C64.2392 77.0385 64.1669 77.3348 64.0228 77.598C63.8788 77.8611 63.6681 78.0818 63.4119 78.2379L47.3537 87.9832C47.0934 88.1294 46.7998 88.2062 46.5012 88.2062C46.2027 88.2062 45.9091 88.1294 45.6488 87.9832L15.3998 71.4204C15.1384 71.2737 14.9194 71.0617 14.7645 70.8051C14.6095 70.5485 14.5237 70.2561 14.5156 69.9564V69.5463L46.4836 87.0709L64.2325 76.1304Z" fill="#4CAF4F"/>
<g id="Group" opacity="0.5">
<path id="Vector_28" opacity="0.5" d="M64.2325 76.1304V76.7386C64.2392 77.0385 64.1669 77.3348 64.0228 77.598C63.8788 77.8611 63.6681 78.0818 63.4119 78.2379L47.3537 87.9832C47.0934 88.1294 46.7998 88.2062 46.5012 88.2062C46.2027 88.2062 45.9091 88.1294 45.6488 87.9832L15.3998 71.4204C15.1384 71.2737 14.9194 71.0617 14.7645 70.8051C14.6095 70.5485 14.5237 70.2561 14.5156 69.9564V69.5463L46.4836 87.0709L64.2325 76.1304Z" fill="white"/>
</g>
<g id="Group_2" opacity="0.1">
<path id="Vector_29" opacity="0.1" d="M64.2325 76.1304V76.7386C64.2392 77.0385 64.1669 77.3348 64.0228 77.598C63.8788 77.8611 63.6681 78.0818 63.4119 78.2379L47.3537 87.9832C47.0934 88.1294 46.7998 88.2062 46.5012 88.2062C46.2027 88.2062 45.9091 88.1294 45.6488 87.9832L15.3998 71.4204C15.1384 71.2737 14.9194 71.0617 14.7645 70.8051C14.6095 70.5485 14.5237 70.2561 14.5156 69.9564V69.5463L46.4836 87.0709L64.2325 76.1304Z" fill="#103E13"/>
</g>
<path id="Vector_30" d="M14.5084 69.5462L31.9886 58.9381C32.1437 58.8494 32.3193 58.8027 32.498 58.8027C32.6766 58.8027 32.8522 58.8494 33.0073 58.9381L64.1335 75.996C64.1672 76.016 64.1951 76.0445 64.2145 76.0786C64.2339 76.1127 64.2441 76.1513 64.2441 76.1905C64.2441 76.2297 64.2339 76.2682 64.2145 76.3023C64.1951 76.3364 64.1672 76.3649 64.1335 76.385L46.4835 87.0992L14.5084 69.5462Z" fill="#4CAF4F"/>
<g id="Group_3" opacity="0.85">
<path id="Vector_31" opacity="0.85" d="M14.5084 69.5462L31.9886 58.9381C32.1437 58.8494 32.3193 58.8027 32.498 58.8027C32.6766 58.8027 32.8522 58.8494 33.0073 58.9381L64.1335 75.996C64.1672 76.016 64.1951 76.0445 64.2145 76.0786C64.2339 76.1127 64.2441 76.1513 64.2441 76.1905C64.2441 76.2297 64.2339 76.2682 64.2145 76.3023C64.1951 76.3364 64.1672 76.3649 64.1335 76.385L46.4835 87.0992L14.5084 69.5462Z" fill="white"/>
</g>
<path id="Vector_32" d="M46.3279 85.4091L55.7577 79.6878L27.7583 64.3413L18.2789 70.0343L46.3279 85.4091Z" fill="#4CAF4F"/>
<g id="Group_4" opacity="0.6">
<path id="Vector_33" opacity="0.6" d="M46.3279 85.4091L55.7577 79.6878L27.7583 64.3413L18.2789 70.0343L46.3279 85.4091Z" fill="white"/>
</g>
<path id="Vector_34" d="M50.9685 70.1403L50.7916 70.2464L46.1722 73.054L37.7398 68.4289L37.563 68.3369L42.3592 65.4232L50.9685 70.1403Z" fill="#4CAF4F"/>
<path id="Vector_35" d="M50.7917 70.2465L46.1723 73.0541L37.7399 68.429L42.3664 65.6284L50.7917 70.2465Z" fill="#4CAF4F"/>
<g id="Group_5" opacity="0.6">
<path id="Vector_36" opacity="0.6" d="M50.7917 70.2465L46.1723 73.0541L37.7399 68.429L42.3664 65.6284L50.7917 70.2465Z" fill="white"/>
</g>
<path id="Vector_37" d="M46.4765 87.0709V88.2025C46.1779 88.2122 45.8822 88.1414 45.6205 87.9974L15.3998 71.4204C15.1384 71.2737 14.9194 71.0617 14.7645 70.8051C14.6095 70.5485 14.5237 70.2561 14.5156 69.9564V69.5463L46.4765 87.0709Z" fill="#4CAF4F"/>
<g id="Group_6" opacity="0.03">
<path id="Vector_38" opacity="0.03" d="M46.4765 87.0709V88.2025C46.1779 88.2122 45.8822 88.1414 45.6205 87.9974L15.3998 71.4204C15.1384 71.2737 14.9194 71.0617 14.7645 70.8051C14.6095 70.5485 14.5237 70.2561 14.5156 69.9564V69.5463L46.4765 87.0709Z" fill="white"/>
</g>
<g id="Group_7" opacity="0.2">
<path id="Vector_39" opacity="0.2" d="M46.4765 87.0709V88.2025C46.1779 88.2122 45.8822 88.1414 45.6205 87.9974L15.3998 71.4204C15.1384 71.2737 14.9194 71.0617 14.7645 70.8051C14.6095 70.5485 14.5237 70.2561 14.5156 69.9564V69.5463L46.4765 87.0709Z" fill="#103E13"/>
</g>
<path id="Vector_40" d="M46.0025 87.3325C45.7227 87.4494 45.4201 87.5012 45.1174 87.484C44.8147 87.4669 44.5199 87.3812 44.2552 87.2335L14.1477 70.7273C13.8841 70.5811 13.6561 70.3786 13.4799 70.134C13.3038 69.8895 13.184 69.6091 13.129 69.3128L9.45043 49.9777C9.44035 49.8672 9.44035 49.7559 9.45043 49.6453C9.44354 49.3782 9.49006 49.1124 9.58724 48.8634C9.68441 48.6145 9.83031 48.3874 10.0164 48.1956L41.2699 65.3525C41.4636 65.4565 41.6315 65.6026 41.7612 65.7801C41.891 65.9576 41.9793 66.1618 42.0197 66.3779L46.0025 87.3325Z" fill="#4CAF4F"/>
<g id="Group_8" opacity="0.4">
<path id="Vector_41" opacity="0.4" d="M46.0025 87.3325C45.7227 87.4494 45.4201 87.5012 45.1174 87.484C44.8147 87.4669 44.5199 87.3812 44.2552 87.2335L14.1477 70.7273C13.8841 70.5811 13.6561 70.3786 13.4799 70.134C13.3038 69.8895 13.184 69.6091 13.129 69.3128L9.45043 49.9777C9.44035 49.8672 9.44035 49.7559 9.45043 49.6453C9.44354 49.3782 9.49006 49.1124 9.58724 48.8634C9.68441 48.6145 9.83031 48.3874 10.0164 48.1956L41.2699 65.3525C41.4636 65.4565 41.6315 65.6026 41.7612 65.7801C41.891 65.9576 41.9793 66.1618 42.0197 66.3779L46.0025 87.3325Z" fill="white"/>
</g>
<path id="Vector_42" d="M46.4765 87.0709L46.2784 87.1911C46.1902 87.2452 46.0979 87.2925 46.0025 87.3326L42.0198 66.4062C41.9794 66.1902 41.891 65.9859 41.7613 65.8084C41.6315 65.631 41.4636 65.4848 41.2699 65.3808L9.98102 48.2239C10.0991 48.0967 10.2349 47.9871 10.3842 47.8986L41.7439 65.0837C41.9362 65.1913 42.1029 65.3393 42.2324 65.5176C42.3618 65.6959 42.451 65.9001 42.4937 66.1163L46.4765 87.0709Z" fill="#4CAF4F"/>
<g id="Group_9" opacity="0.6">
<path id="Vector_43" opacity="0.6" d="M46.4765 87.0709L46.2784 87.1911C46.1902 87.2452 46.0979 87.2925 46.0025 87.3326L42.0198 66.4062C41.9794 66.1902 41.891 65.9859 41.7613 65.8084C41.6315 65.631 41.4636 65.4848 41.2699 65.3808L9.98102 48.2239C10.0991 48.0967 10.2349 47.9871 10.3842 47.8986L41.7439 65.0837C41.9362 65.1913 42.1029 65.3393 42.2324 65.5176C42.3618 65.6959 42.451 65.9001 42.4937 66.1163L46.4765 87.0709Z" fill="white"/>
</g>
<path id="Vector_44" d="M41.7297 65.7698L42.1966 65.4869C42.3444 65.6701 42.4462 65.8859 42.4937 66.1164L46.4765 87.071L46.2784 87.1912C46.1902 87.2453 46.098 87.2926 46.0025 87.3326L42.0198 66.4063C41.9749 66.1742 41.8755 65.956 41.7297 65.7698Z" fill="#4CAF4F"/>
<path id="Vector_45" opacity="0.5" d="M41.7297 65.7698L42.1966 65.4869C42.3444 65.6701 42.4462 65.8859 42.4937 66.1164L46.4765 87.071L46.2784 87.1912C46.1902 87.2453 46.098 87.2926 46.0025 87.3326L42.0198 66.4063C41.9749 66.1742 41.8755 65.956 41.7297 65.7698Z" fill="white"/>
<path id="Vector_46" opacity="0.1" d="M41.7297 65.7698L42.1966 65.4869C42.3444 65.6701 42.4462 65.8859 42.4937 66.1164L46.4765 87.071L46.2784 87.1912C46.1902 87.2453 46.098 87.2926 46.0025 87.3326L42.0198 66.4063C41.9749 66.1742 41.8755 65.956 41.7297 65.7698Z" fill="#103E13"/>
<path id="Vector_47" d="M28.8619 69.7868C28.3588 68.1742 27.2544 66.8169 25.7776 65.9962C24.3274 65.2041 23.344 65.6001 23.5916 66.9014C23.8392 68.2027 25.2187 69.8858 26.676 70.685C28.1332 71.4841 29.1095 71.081 28.8619 69.7868Z" fill="#455A64"/>
<path id="Vector_48" d="M64.8196 74.4189C63.136 75.6 60.8652 74.6452 58.6298 74.914C56.3944 75.1827 54.4843 75.7343 52.6875 75.6848C50.8907 75.6353 50.0135 75.996 51.2727 77.4316C52.5319 78.8673 56.1326 78.0399 57.1088 78.4783C57.3869 78.6406 57.6243 78.864 57.8032 79.1317C57.9821 79.3993 58.0977 79.7041 58.1413 80.023C58.185 80.3419 58.1554 80.6665 58.055 80.9723C57.9545 81.2781 57.7858 81.5571 57.5616 81.7881C56.5076 83.0115 63.5605 80.6494 64.5013 79.1997C65.4422 77.7499 66.093 74.6028 64.8196 74.4189Z" fill="#E8F5E9"/>
</g>
</g>
</g>
</svg>
